<?xml version="1.0" encoding="UTF-8" standalone="no"?>
<!DOCTYPE svg PUBLIC "-//W3C//DTD SVG 1.1//EN" "http://www.w3.org/Graphics/SVG/1.1/DTD/svg11.dtd">
<svg version="1.1" xmlns="http://www.w3.org/2000/svg" xmlns:xlink="http://www.w3.org/1999/xlink" preserveAspectRatio="xMidYMid meet" viewBox="0 0 512 512" width="512" height="512"><defs><path d="M480 260C480 381.42 381.42 480 260 480C138.58 480 40 381.42 40 260C40 138.58 138.58 40 260 40C381.42 40 480 138.58 480 260Z" id="d2wEecLIQG"></path><path d="M324 158C328.42 158 332 161.58 332 166C332 196.4 332 279.6 332 310C332 314.42 328.42 318 324 318C285.6 318 178.4 318 140 318C135.58 318 132 314.42 132 310C132 279.6 132 196.4 132 166C132 161.58 135.58 158 140 158C178.4 158 285.6 158 324 158Z" id="aEhZpjPI7"></path><path d="M396 206C400.42 206 404 209.58 404 214C404 244.4 404 327.6 404 358C404 362.42 400.42 366 396 366C357.6 366 250.4 366 212 366C207.58 366 204 362.42 204 358C204 327.6 204 244.4 204 214C204 209.58 207.58 206 212 206C250.4 206 357.6 206 396 206Z" id="a6QtAECpkJ"></path></defs><g><g><g><use xlink:href="#d2wEecLIQG" opacity="1" fill="#51a7f9" fill-opacity="1"></use></g><g><use xlink:href="#aEhZpjPI7" opacity="1" fill="#51a7f9" fill-opacity="1"></use><g><use xlink:href="#aEhZpjPI7" opacity="1" fill-opacity="0" stroke="#ffffff" stroke-width="24" stroke-opacity="1"></use></g></g><g><use xlink:href="#a6QtAECpkJ" opacity="1" fill="#51a7f9" fill-opacity="1"></use><g><use xlink:href="#a6QtAECpkJ" opacity="1" fill-opacity="0" stroke="#ffffff" stroke-width="24" stroke-opacity="1"></use></g></g></g></g></svg>